<svg width="119" height="57" viewBox="0 0 119 57" fill="none" xmlns="http://www.w3.org/2000/svg">
<g clip-path="url(#clip0_50_190)">
<path d="M41.0652 40.9447C40.9944 40.3959 40.9767 39.3161 40.9767 37.7053V35.05C40.9767 34.1295 40.9059 33.386 40.7465 32.8018C40.6048 32.2177 40.1975 31.722 39.5423 31.3149C38.8871 30.9077 37.86 30.6953 36.4788 30.6953C34.9913 30.6953 33.8048 30.9785 32.9371 31.545L34.159 32.7664C34.6548 32.4478 35.3277 32.2885 36.16 32.2885C36.8152 32.2885 37.3465 32.377 37.7538 32.5363C38.1434 32.6956 38.4267 32.908 38.6215 33.1736C38.7986 33.4391 38.9048 33.6869 38.9402 33.9348C38.9757 34.1826 38.9934 34.5897 38.9934 35.1916C38.5507 35.3509 37.984 35.4925 37.2934 35.5987L35.4517 35.8643C33.7694 36.0767 32.5829 36.4838 31.8923 37.1034C31.2017 37.723 30.8652 38.5195 30.8652 39.4931C30.8652 40.5021 31.2194 41.3164 31.9277 41.9183C32.6361 42.5379 33.61 42.8388 34.8319 42.8388C36.3725 42.8388 37.7892 42.2723 39.1173 41.1394C39.2059 41.7236 39.3298 42.2015 39.5246 42.5733H41.6142C41.3132 42.0422 41.1361 41.4935 41.0652 40.9447ZM39.0111 37.4574C39.0111 38.8559 38.6392 39.8472 37.8954 40.4136C37.1517 40.9978 36.3017 41.281 35.3277 41.281C34.584 41.281 33.9996 41.104 33.5923 40.7677C33.185 40.4136 32.9902 39.9888 32.9902 39.44C32.9902 38.3779 33.734 37.7584 35.2215 37.5459C36.709 37.3512 37.9663 37.068 38.9934 36.7316V37.4574H39.0111Z" fill="black"/>
<path d="M100.654 40.9447C100.583 40.3959 100.565 39.3161 100.565 37.7053V35.05C100.565 34.1295 100.495 33.386 100.335 32.8018C100.194 32.2177 99.7863 31.722 99.131 31.3149C98.4758 30.9077 97.4488 30.6953 96.0675 30.6953C94.58 30.6953 93.3936 30.9785 92.5258 31.545L93.7654 32.7664C94.2613 32.4478 94.9342 32.2885 95.7665 32.2885C96.4217 32.2885 96.9529 32.377 97.3602 32.5363C97.7498 32.6956 98.0331 32.908 98.2279 33.1736C98.405 33.4391 98.5113 33.6869 98.5467 33.9348C98.5821 34.1826 98.5998 34.5897 98.5998 35.1916C98.1571 35.3509 97.5904 35.4925 96.8998 35.5987L95.0581 35.8643C93.3758 36.0767 92.1894 36.4838 91.4988 37.1034C90.8081 37.723 90.4717 38.5195 90.4717 39.4931C90.4717 40.5021 90.8258 41.3164 91.5342 41.9183C92.2425 42.5379 93.2165 42.8388 94.4383 42.8388C95.979 42.8388 97.3956 42.2723 98.7238 41.1394C98.7946 41.7236 98.9363 42.2015 99.131 42.5733H101.203C100.902 42.0422 100.725 41.4935 100.654 40.9447ZM98.5998 37.4574C98.5998 38.8559 98.2279 39.8472 97.4842 40.4136C96.7404 40.9978 95.8904 41.281 94.9165 41.281C94.1727 41.281 93.5883 41.104 93.1811 40.7677C92.7738 40.4136 92.579 39.9888 92.579 39.44C92.579 38.3779 93.3227 37.7584 94.8102 37.5459C96.2977 37.3512 97.555 37.068 98.5821 36.7316V37.4574H98.5998Z" fill="black"/>
<path d="M65.7504 37.1386H56.8608C56.9493 38.4485 57.3212 39.4575 57.9764 40.1479C58.6494 40.8383 59.4816 41.1923 60.4733 41.1923C61.2348 41.1923 61.89 40.9976 62.4035 40.5904C62.9171 40.1833 63.4306 39.5106 63.6077 38.5547H65.6796C65.5202 40.1479 64.7233 41.1923 63.8379 41.8473C62.9348 42.5022 61.8191 42.8386 60.491 42.8386C58.7025 42.8386 57.3212 42.2898 56.3118 41.21C55.3025 40.1125 54.8066 38.6255 54.8066 36.7314C54.8066 34.855 55.2848 33.3504 56.2587 32.182C57.2327 31.0137 58.5962 30.4473 60.3671 30.4473C61.2348 30.4473 62.0671 30.642 62.8639 31.0137C63.6608 31.3855 64.3514 32.0404 64.9004 32.9609C65.4671 33.846 65.7504 35.2445 65.7504 37.1386ZM63.6785 35.4746C63.59 34.2709 63.2181 33.4035 62.5629 32.8724C61.89 32.3414 61.1639 32.0758 60.3848 32.0758C59.4462 32.0758 58.6671 32.3945 58.0473 33.0317C57.4275 33.669 57.0733 34.4833 56.9848 35.4923L63.6785 35.4746Z" fill="black"/>
<path d="M82.8393 37.1386H73.9497C74.0382 38.4485 74.4101 39.4575 75.0653 40.1479C75.7382 40.8383 76.5705 41.1923 77.5622 41.1923C78.3236 41.1923 78.9788 40.9976 79.4924 40.5904C80.0059 40.1833 80.5195 39.5106 80.6966 38.5547H82.7684C82.6091 40.1479 81.8122 41.1923 80.9268 41.8473C80.0236 42.5022 78.908 42.8386 77.5799 42.8386C75.7913 42.8386 74.4101 42.2898 73.4007 41.21C72.3913 40.1125 71.8955 38.6255 71.8955 36.7314C71.8955 34.855 72.3736 33.3504 73.3476 32.182C74.3216 31.0137 75.6851 30.4473 77.4559 30.4473C78.3236 30.4473 79.1559 30.642 79.9528 31.0137C80.7497 31.3855 81.4403 32.0404 81.9893 32.9609C82.5559 33.846 82.8393 35.2445 82.8393 37.1386ZM80.7674 35.4746C80.6788 34.2709 80.307 33.4035 79.6518 32.8724C78.9788 32.3414 78.2528 32.0758 77.4736 32.0758C76.5351 32.0758 75.7559 32.3945 75.1361 33.0317C74.5163 33.669 74.1622 34.4833 74.0736 35.4923L80.7674 35.4746Z" fill="black"/>
<path d="M112.448 42.5547H110.464V35.4917C110.464 34.3056 110.252 33.4914 109.827 33.0311C109.402 32.5886 108.8 32.3584 108.056 32.3584C107.472 32.3584 106.923 32.5 106.391 32.7833C105.878 33.0665 105.506 33.4737 105.276 33.987C105.063 34.5004 104.939 35.2438 104.939 36.182V42.537H102.974V30.9423H104.744V32.5886H104.78C105.205 31.9513 105.701 31.4733 106.321 31.1547C106.923 30.8361 107.631 30.6768 108.446 30.6768C109.065 30.6768 109.667 30.783 110.269 31.0131C110.872 31.2255 111.332 31.5619 111.668 32.0044C112.005 32.4469 112.217 32.9072 112.306 33.4028C112.394 33.8985 112.43 34.5712 112.43 35.4209V42.5547H112.448Z" fill="black"/>
<path d="M89.4621 30.6768C88.6652 30.6768 87.9569 30.8361 87.3371 31.1547C86.735 31.4733 86.2215 31.9513 85.7965 32.5886H85.7611V30.9423H83.9902V42.5547H85.9559V36.1997C85.9559 35.2438 86.0621 34.5181 86.2923 34.0047C86.5048 33.4914 86.8767 33.0842 87.4079 32.801C87.9215 32.5178 88.4882 32.3761 89.0725 32.3761C89.4798 32.3761 89.8517 32.4469 90.1527 32.5709V30.7299C89.9225 30.6945 89.6923 30.6768 89.4621 30.6768Z" fill="black"/>
<path d="M118.079 40.8733C117.583 40.8733 117.282 40.7494 117.158 40.5015C117.034 40.2537 116.981 39.8466 116.981 39.2624V32.4649H118.947V30.9425H116.981V26.8711L115.015 28.0571V30.9425H113.581V32.4649H115.015V39.1562C115.015 39.9882 115.051 40.6431 115.139 41.1034C115.228 41.5636 115.476 41.9531 115.865 42.254C116.255 42.5549 116.893 42.7143 117.743 42.7143C117.866 42.7143 118.008 42.7143 118.15 42.6966V40.8733C118.132 40.8733 118.114 40.8733 118.079 40.8733Z" fill="black"/>
<path d="M54.0636 42.5558H51.6376L48.6094 37.9533L45.5459 42.5558H43.1553L47.423 36.5017L43.5094 30.9434H45.9532C47.5469 33.3508 48.4146 34.6785 48.5563 34.9617L51.4074 30.9434H53.7626L49.7428 36.3955L54.0636 42.5558Z" fill="#FC4C02"/>
<path d="M67.6816 39.1563C67.6816 39.9883 67.7171 40.6433 67.8056 41.1035C67.8941 41.5638 68.1421 41.9532 68.5316 42.2541C68.9212 42.5551 69.5587 42.7144 70.4087 42.7144C70.5327 42.7144 70.6744 42.7144 70.816 42.6967V40.8734C70.7983 40.8734 70.7629 40.8734 70.7452 40.8734C70.2493 40.8734 69.9483 40.7495 69.8243 40.5017C69.7004 40.2538 69.6473 39.8467 69.6473 39.2625V26.8535H67.6816V39.1563Z" fill="black"/>
<path d="M0.0361328 21.5078H6.83613L17.1955 36.519L6.81842 53.0879H0.0361328L10.2715 36.342L0.0361328 21.5078Z" fill="#FC4C02"/>
<path d="M20.6304 41.4229L17.6377 46.9812L24.5617 57.0359H31.3439L20.6304 41.4229Z" fill="#FC4C02"/>
<path d="M14.7338 14.6043C13.7244 16.0558 11.6349 17.9499 13.1755 20.3397C14.6984 22.7294 15.4599 23.8978 16.363 25.1723C17.2661 26.4645 20.6484 31.3857 20.6484 31.3857C20.6484 31.3857 29.0421 17.3835 29.4317 16.7285C29.8213 16.0912 29.9453 14.799 28.4046 13.1173C26.864 11.4357 22.5963 7.43503 21.3036 5.38161C20.0109 3.3282 20.0109 -0.0351562 20.0109 -0.0351562C20.0109 -0.0351562 18.789 2.4431 18.7182 3.96547C18.6296 5.91267 20.2588 8.35553 21.4276 10.4089C22.5963 12.4801 22.9682 14.4096 22.9682 15.5602C22.9682 16.7108 21.9411 18.003 21.9411 18.003C21.9411 18.003 21.7994 15.3478 20.6484 14.1971C19.4796 13.0288 18.5411 12.0729 17.5849 9.84248C16.7526 11.9136 17.3369 13.9847 17.8505 15.6664C18.364 17.3481 17.6557 18.835 17.1599 20.2158C16.6109 19.667 17.5849 18.5695 16.1151 17.2596C15.0349 16.3391 14.6807 15.4009 14.7338 14.6043Z" fill="#FC4C02"/>
<path d="M32.4324 49.6132V51.6378H35.4074V52.4404H31.5811V46.0564H35.3616V46.8589H32.4324V48.8197H35.1327V49.6132H32.4324Z" fill="black"/>
<path d="M38.4947 47.7618C39.0317 47.7618 39.462 47.932 39.7854 48.2725C40.1088 48.6069 40.2706 49.0629 40.2706 49.6405V52.4404H39.4742V49.6861C39.4742 49.3213 39.3735 49.0356 39.1721 48.8288C38.9707 48.6221 38.693 48.5188 38.3391 48.5188C37.9302 48.5188 37.6068 48.6464 37.3688 48.9018C37.1308 49.1511 37.0118 49.525 37.0118 50.0236V52.4404H36.2154V47.8804H37.0118V48.537C37.3291 48.0202 37.8234 47.7618 38.4947 47.7618Z" fill="black"/>
<path d="M45.0439 48.6647V47.8804H45.8311V52.2488C45.8311 52.9237 45.6022 53.4466 45.1446 53.8175C44.6808 54.1944 44.1315 54.3829 43.4969 54.3829C42.9842 54.3829 42.5418 54.2856 42.1696 54.0911C41.7973 53.9026 41.5166 53.629 41.3274 53.2703L42.0231 52.8781C42.2733 53.3888 42.7707 53.6442 43.5152 53.6442C43.9912 53.6442 44.3634 53.5196 44.6319 53.2703C44.9066 53.021 45.0439 52.6805 45.0439 52.2488V51.6013C44.6411 52.2093 44.0675 52.5133 43.3229 52.5133C42.6639 52.5133 42.1116 52.2823 41.6661 51.8202C41.2145 51.352 40.9887 50.7896 40.9887 50.133C40.9887 49.4764 41.2145 48.917 41.6661 48.4549C42.1116 47.9928 42.6639 47.7618 43.3229 47.7618C44.0736 47.7618 44.6472 48.0628 45.0439 48.6647ZM45.0439 50.133C45.0439 49.677 44.8882 49.294 44.577 48.9839C44.2658 48.6738 43.8783 48.5188 43.4145 48.5188C42.9507 48.5188 42.5632 48.6738 42.2519 48.9839C41.9407 49.294 41.7851 49.677 41.7851 50.133C41.7851 50.5951 41.9407 50.9812 42.2519 51.2912C42.5632 51.6013 42.9507 51.7564 43.4145 51.7564C43.8783 51.7564 44.2658 51.6013 44.577 51.2912C44.8882 50.9812 45.0439 50.5951 45.0439 50.133Z" fill="black"/>
<path d="M47.3031 47.0504C47.1506 47.0504 47.0224 46.9988 46.9187 46.8954C46.8149 46.792 46.7631 46.6674 46.7631 46.5215C46.7631 46.3756 46.8149 46.2509 46.9187 46.1476C47.0224 46.0381 47.1506 45.9834 47.3031 45.9834C47.4496 45.9834 47.5747 46.0381 47.6785 46.1476C47.7822 46.2509 47.8341 46.3756 47.8341 46.5215C47.8341 46.6674 47.7822 46.792 47.6785 46.8954C47.5747 46.9988 47.4496 47.0504 47.3031 47.0504ZM47.6968 52.4404H46.9004V47.8804H47.6968V52.4404Z" fill="black"/>
<path d="M51.0537 47.7618C51.5907 47.7618 52.021 47.932 52.3444 48.2725C52.6678 48.6069 52.8296 49.0629 52.8296 49.6405V52.4404H52.0332V49.6861C52.0332 49.3213 51.9325 49.0356 51.7311 48.8288C51.5297 48.6221 51.2521 48.5188 50.8981 48.5188C50.4892 48.5188 50.1658 48.6464 49.9278 48.9018C49.6898 49.1511 49.5708 49.525 49.5708 50.0236V52.4404H48.7744V47.8804H49.5708V48.537C49.8881 48.0202 50.3824 47.7618 51.0537 47.7618Z" fill="black"/>
<path d="M58.1979 50.5252H54.3624C54.4417 50.9264 54.6279 51.2426 54.9208 51.4736C55.2137 51.6986 55.5799 51.8111 56.0193 51.8111C56.6234 51.8111 57.0628 51.5892 57.3374 51.1453L58.0148 51.5284C57.5632 52.2154 56.8919 52.5589 56.0009 52.5589C55.2808 52.5589 54.6889 52.334 54.2251 51.884C53.7735 51.422 53.5477 50.8474 53.5477 50.1604C53.5477 49.4672 53.7705 48.8957 54.2159 48.4458C54.6614 47.9898 55.2381 47.7618 55.946 47.7618C56.6173 47.7618 57.1635 47.9989 57.5846 48.4732C58.0117 48.9352 58.2253 49.5007 58.2253 50.1695C58.2253 50.285 58.2162 50.4036 58.1979 50.5252ZM55.946 48.5096C55.5249 48.5096 55.171 48.6282 54.8842 48.8653C54.6035 49.1024 54.4295 49.4247 54.3624 49.832H57.4198C57.3527 49.4125 57.1848 49.0872 56.9163 48.8562C56.6478 48.6252 56.3244 48.5096 55.946 48.5096Z" fill="black"/>
<path d="M63.3884 50.5252H59.5529C59.6323 50.9264 59.8184 51.2426 60.1113 51.4736C60.4042 51.6986 60.7704 51.8111 61.2098 51.8111C61.8139 51.8111 62.2533 51.5892 62.5279 51.1453L63.2053 51.5284C62.7537 52.2154 62.0824 52.5589 61.1915 52.5589C60.4714 52.5589 59.8794 52.334 59.4156 51.884C58.964 51.422 58.7382 50.8474 58.7382 50.1604C58.7382 49.4672 58.961 48.8957 59.4065 48.4458C59.8519 47.9898 60.4286 47.7618 61.1365 47.7618C61.8078 47.7618 62.354 47.9989 62.7751 48.4732C63.2023 48.9352 63.4158 49.5007 63.4158 50.1695C63.4158 50.285 63.4067 50.4036 63.3884 50.5252ZM61.1365 48.5096C60.7155 48.5096 60.3615 48.6282 60.0747 48.8653C59.794 49.1024 59.6201 49.4247 59.5529 49.832H62.6103C62.5432 49.4125 62.3754 49.0872 62.1068 48.8562C61.8383 48.6252 61.5149 48.5096 61.1365 48.5096Z" fill="black"/>
<path d="M64.9904 47.8804V48.6464C65.2528 48.081 65.7288 47.7983 66.4184 47.7983V48.6282C66.0278 48.61 65.6922 48.7133 65.4115 48.9383C65.1307 49.1632 64.9904 49.525 64.9904 50.0236V52.4404H64.194V47.8804H64.9904Z" fill="black"/>
<path d="M67.4631 47.0504C67.3105 47.0504 67.1823 46.9988 67.0786 46.8954C66.9749 46.792 66.923 46.6674 66.923 46.5215C66.923 46.3756 66.9749 46.2509 67.0786 46.1476C67.1823 46.0381 67.3105 45.9834 67.4631 45.9834C67.6095 45.9834 67.7346 46.0381 67.8384 46.1476C67.9421 46.2509 67.994 46.3756 67.994 46.5215C67.994 46.6674 67.9421 46.792 67.8384 46.8954C67.7346 46.9988 67.6095 47.0504 67.4631 47.0504ZM67.8567 52.4404H67.0603V47.8804H67.8567V52.4404Z" fill="black"/>
<path d="M71.2136 47.7618C71.7507 47.7618 72.1809 47.932 72.5043 48.2725C72.8278 48.6069 72.9895 49.0629 72.9895 49.6405V52.4404H72.1931V49.6861C72.1931 49.3213 72.0924 49.0356 71.891 48.8288C71.6896 48.6221 71.412 48.5188 71.058 48.5188C70.6491 48.5188 70.3257 48.6464 70.0877 48.9018C69.8497 49.1511 69.7307 49.525 69.7307 50.0236V52.4404H68.9343V47.8804H69.7307V48.537C70.048 48.0202 70.5424 47.7618 71.2136 47.7618Z" fill="black"/>
<path d="M77.7628 48.6647V47.8804H78.55V52.2488C78.55 52.9237 78.3212 53.4466 77.8635 53.8175C77.3997 54.1944 76.8504 54.3829 76.2158 54.3829C75.7032 54.3829 75.2607 54.2856 74.8885 54.0911C74.5162 53.9026 74.2355 53.629 74.0463 53.2703L74.742 52.8781C74.9922 53.3888 75.4896 53.6442 76.2341 53.6442C76.7101 53.6442 77.0823 53.5196 77.3509 53.2703C77.6255 53.021 77.7628 52.6805 77.7628 52.2488V51.6013C77.36 52.2093 76.7864 52.5133 76.0419 52.5133C75.3828 52.5133 74.8305 52.2823 74.385 51.8202C73.9334 51.352 73.7076 50.7896 73.7076 50.133C73.7076 49.4764 73.9334 48.917 74.385 48.4549C74.8305 47.9928 75.3828 47.7618 76.0419 47.7618C76.7925 47.7618 77.3661 48.0628 77.7628 48.6647ZM77.7628 50.133C77.7628 49.677 77.6072 49.294 77.2959 48.9839C76.9847 48.6738 76.5972 48.5188 76.1334 48.5188C75.6696 48.5188 75.2821 48.6738 74.9709 48.9839C74.6596 49.294 74.504 49.677 74.504 50.133C74.504 50.5951 74.6596 50.9812 74.9709 51.2912C75.2821 51.6013 75.6696 51.7564 76.1334 51.7564C76.5972 51.7564 76.9847 51.6013 77.2959 51.2912C77.6072 50.9812 77.7628 50.5951 77.7628 50.133Z" fill="black"/>
<path d="M85.8165 48.765V46.0564H86.6586V52.4404H85.8165V49.5676H82.7041V52.4404H81.8528V46.0564H82.7041V48.765H85.8165Z" fill="black"/>
<path d="M91.5999 48.6647V47.8804H92.3963V52.4404H91.5999V51.656C91.2093 52.258 90.6326 52.5589 89.8698 52.5589C89.2229 52.5589 88.6768 52.3279 88.2313 51.8658C87.7797 51.3976 87.5539 50.8292 87.5539 50.1604C87.5539 49.4976 87.7797 48.9322 88.2313 48.464C88.6829 47.9959 89.229 47.7618 89.8698 47.7618C90.6326 47.7618 91.2093 48.0628 91.5999 48.6647ZM89.9705 51.7928C90.4343 51.7928 90.8218 51.6378 91.133 51.3277C91.4443 51.0055 91.5999 50.6164 91.5999 50.1604C91.5999 49.6983 91.4443 49.3122 91.133 49.0021C90.8218 48.686 90.4343 48.5279 89.9705 48.5279C89.5128 48.5279 89.1284 48.686 88.8171 49.0021C88.5059 49.3122 88.3503 49.6983 88.3503 50.1604C88.3503 50.6164 88.5059 51.0055 88.8171 51.3277C89.1284 51.6378 89.5128 51.7928 89.9705 51.7928Z" fill="black"/>
<path d="M95.7449 47.7618C96.2819 47.7618 96.7121 47.932 97.0356 48.2725C97.359 48.6069 97.5207 49.0629 97.5207 49.6405V52.4404H96.7243V49.6861C96.7243 49.3213 96.6236 49.0356 96.4223 48.8288C96.2209 48.6221 95.9432 48.5188 95.5893 48.5188C95.1804 48.5188 94.8569 48.6464 94.6189 48.9018C94.381 49.1511 94.2619 49.525 94.2619 50.0236V52.4404H93.4656V47.8804H94.2619V48.537C94.5793 48.0202 95.0736 47.7618 95.7449 47.7618Z" fill="black"/>
<path d="M101.022 47.7618C101.662 47.7618 102.209 47.9959 102.66 48.464C103.112 48.9322 103.338 49.4976 103.338 50.1604C103.338 50.8292 103.112 51.3976 102.66 51.8658C102.215 52.3279 101.669 52.5589 101.022 52.5589C100.265 52.5589 99.6882 52.258 99.2916 51.656V52.4404H98.4952V46.0564H99.2916V48.6647C99.6882 48.0628 100.265 47.7618 101.022 47.7618ZM100.921 51.7928C101.379 51.7928 101.763 51.6378 102.074 51.3277C102.386 51.0055 102.541 50.6164 102.541 50.1604C102.541 49.6983 102.386 49.3122 102.074 49.0021C101.763 48.686 101.379 48.5279 100.921 48.5279C100.457 48.5279 100.07 48.686 99.7584 49.0021C99.4472 49.3122 99.2916 49.6983 99.2916 50.1604C99.2916 50.6164 99.4472 51.0055 99.7584 51.3277C100.07 51.6378 100.457 51.7928 100.921 51.7928Z" fill="black"/>
<path d="M108.013 51.8658C107.55 52.3279 106.979 52.5589 106.302 52.5589C105.624 52.5589 105.054 52.3279 104.59 51.8658C104.126 51.4037 103.894 50.8352 103.894 50.1604C103.894 49.4855 104.126 48.917 104.59 48.4549C105.054 47.9928 105.624 47.7618 106.302 47.7618C106.979 47.7618 107.55 47.9928 108.013 48.4549C108.483 48.9231 108.718 49.4916 108.718 50.1604C108.718 50.8292 108.483 51.3976 108.013 51.8658ZM106.302 51.7837C106.759 51.7837 107.144 51.6287 107.455 51.3186C107.766 51.0085 107.922 50.6224 107.922 50.1604C107.922 49.6983 107.766 49.3122 107.455 49.0021C107.144 48.692 106.759 48.537 106.302 48.537C105.85 48.537 105.469 48.692 105.157 49.0021C104.846 49.3122 104.691 49.6983 104.691 50.1604C104.691 50.6224 104.846 51.0085 105.157 51.3186C105.469 51.6287 105.85 51.7837 106.302 51.7837Z" fill="black"/>
<path d="M113.383 51.8658C112.919 52.3279 112.348 52.5589 111.671 52.5589C110.994 52.5589 110.423 52.3279 109.959 51.8658C109.495 51.4037 109.264 50.8352 109.264 50.1604C109.264 49.4855 109.495 48.917 109.959 48.4549C110.423 47.9928 110.994 47.7618 111.671 47.7618C112.348 47.7618 112.919 47.9928 113.383 48.4549C113.853 48.9231 114.088 49.4916 114.088 50.1604C114.088 50.8292 113.853 51.3976 113.383 51.8658ZM111.671 51.7837C112.129 51.7837 112.513 51.6287 112.824 51.3186C113.136 51.0085 113.291 50.6224 113.291 50.1604C113.291 49.6983 113.136 49.3122 112.824 49.0021C112.513 48.692 112.129 48.537 111.671 48.537C111.219 48.537 110.838 48.692 110.527 49.0021C110.216 49.3122 110.06 49.6983 110.06 50.1604C110.06 50.6224 110.216 51.0085 110.527 51.3186C110.838 51.6287 111.219 51.7837 111.671 51.7837Z" fill="black"/>
<path d="M116.5 50.0874L118.761 52.4404H117.773L115.686 50.2789V52.4404H114.889V46.0564H115.686V49.8959L117.663 47.8804H118.688L116.5 50.0874Z" fill="black"/>
</g>
<defs>
<clipPath id="clip0_50_190">
<rect width="119" height="57" fill="white"/>
</clipPath>
</defs>
</svg>
