<svg width="167" height="80" viewBox="0 0 167 80" fill="none" xmlns="http://www.w3.org/2000/svg">
<g clip-path="url(#clip0_44_17)">
<path d="M57.3375 57.4661C57.2386 56.696 57.2138 55.1804 57.2138 52.9196V49.1929C57.2138 47.9009 57.1149 46.8575 56.8924 46.0376C56.6946 45.2177 56.1259 44.522 55.2111 43.9506C54.2963 43.3792 52.8622 43.0811 50.9336 43.0811C48.8567 43.0811 47.2001 43.4786 45.9886 44.2736L47.6946 45.9879C48.3869 45.5407 49.3265 45.3171 50.4886 45.3171C51.4034 45.3171 52.1452 45.4413 52.7138 45.6649C53.2578 45.8885 53.6534 46.1866 53.9254 46.5593C54.1726 46.932 54.321 47.2798 54.3704 47.6276C54.4199 47.9755 54.4446 48.5469 54.4446 49.3916C53.8265 49.6152 53.0353 49.814 52.071 49.963L49.4996 50.3357C47.1507 50.6338 45.4941 51.2053 44.5298 52.0748C43.5655 52.9444 43.0957 54.0624 43.0957 55.4289C43.0957 56.845 43.5902 57.9879 44.5792 58.8326C45.5682 59.7022 46.9281 60.1245 48.6342 60.1245C50.7853 60.1245 52.7633 59.3295 54.6177 57.7394C54.7413 58.5593 54.9144 59.2301 55.1864 59.7519H58.1039C57.6836 59.0065 57.4364 58.2363 57.3375 57.4661ZM54.4693 52.5717C54.4693 54.5345 53.9501 55.9258 52.9116 56.7208C51.8732 57.5407 50.6864 57.9382 49.3265 57.9382C48.288 57.9382 47.4721 57.6898 46.9034 57.2177C46.3347 56.7208 46.0627 56.1245 46.0627 55.3543C46.0627 53.8637 47.1012 52.9941 49.1781 52.696C51.255 52.4227 53.0105 52.0252 54.4446 51.5531V52.5717H54.4693Z" fill="black"/>
<path d="M140.538 57.4661C140.439 56.696 140.415 55.1804 140.415 52.9196V49.1929C140.415 47.9009 140.316 46.8575 140.093 46.0376C139.895 45.2177 139.327 44.522 138.412 43.9506C137.497 43.3792 136.063 43.0811 134.134 43.0811C132.058 43.0811 130.401 43.4786 129.189 44.2736L130.92 45.9879C131.612 45.5407 132.552 45.3171 133.714 45.3171C134.629 45.3171 135.371 45.4413 135.939 45.6649C136.483 45.8885 136.879 46.1866 137.151 46.5593C137.398 46.932 137.547 47.2798 137.596 47.6276C137.645 47.9755 137.67 48.5469 137.67 49.3916C137.052 49.6152 136.261 49.814 135.297 49.963L132.725 50.3357C130.376 50.6338 128.72 51.2053 127.755 52.0748C126.791 52.9444 126.321 54.0624 126.321 55.4289C126.321 56.845 126.816 57.9879 127.805 58.8326C128.794 59.7022 130.154 60.1245 131.86 60.1245C134.011 60.1245 135.989 59.3295 137.843 57.7394C137.942 58.5593 138.14 59.2301 138.412 59.7519H141.305C140.884 59.0065 140.637 58.2363 140.538 57.4661ZM137.67 52.5717C137.67 54.5345 137.151 55.9258 136.112 56.7208C135.074 57.5407 133.887 57.9382 132.527 57.9382C131.489 57.9382 130.673 57.6898 130.104 57.2177C129.536 56.7208 129.264 56.1245 129.264 55.3543C129.264 53.8637 130.302 52.9941 132.379 52.696C134.456 52.4227 136.211 52.0252 137.645 51.5531V52.5717H137.67Z" fill="black"/>
<path d="M91.8046 52.1247H79.3925C79.5162 53.9632 80.0354 55.3794 80.9502 56.3483C81.8898 57.3172 83.0519 57.8141 84.4365 57.8141C85.4997 57.8141 86.4145 57.5409 87.1316 56.9694C87.8486 56.398 88.5656 55.4539 88.8129 54.1123H91.7057C91.4832 56.3483 90.3706 57.8141 89.1343 58.7334C87.8733 59.6527 86.3156 60.1247 84.4612 60.1247C81.964 60.1247 80.0354 59.3545 78.6261 57.839C77.2167 56.2986 76.5244 54.2117 76.5244 51.5533C76.5244 48.9197 77.192 46.8079 78.5519 45.1682C79.9118 43.5284 81.8156 42.7334 84.2882 42.7334C85.4997 42.7334 86.6618 43.0067 87.7744 43.5284C88.8871 44.0502 89.8513 44.9694 90.6178 46.2613C91.409 47.5036 91.8046 49.4663 91.8046 52.1247ZM88.9118 49.7893C88.7881 48.0999 88.2689 46.8825 87.3541 46.1371C86.4145 45.3918 85.4008 45.0191 84.3129 45.0191C83.0024 45.0191 81.9145 45.4663 81.0491 46.3607C80.1838 47.2551 79.6892 48.398 79.5656 49.8141L88.9118 49.7893Z" fill="black"/>
<path d="M115.665 52.1247H103.253C103.377 53.9632 103.896 55.3794 104.811 56.3483C105.75 57.3172 106.912 57.8141 108.297 57.8141C109.36 57.8141 110.275 57.5409 110.992 56.9694C111.709 56.398 112.426 55.4539 112.673 54.1123H115.566C115.344 56.3483 114.231 57.8141 112.995 58.7334C111.734 59.6527 110.176 60.1247 108.322 60.1247C105.824 60.1247 103.896 59.3545 102.486 57.839C101.077 56.2986 100.385 54.2117 100.385 51.5533C100.385 48.9197 101.052 46.8079 102.412 45.1682C103.772 43.5284 105.676 42.7334 108.149 42.7334C109.36 42.7334 110.522 43.0067 111.635 43.5284C112.747 44.0502 113.712 44.9694 114.478 46.2613C115.269 47.5036 115.665 49.4663 115.665 52.1247ZM112.772 49.7893C112.648 48.0999 112.129 46.8825 111.214 46.1371C110.275 45.3918 109.261 45.0191 108.173 45.0191C106.863 45.0191 105.775 45.4663 104.909 46.3607C104.044 47.2551 103.55 48.398 103.426 49.8141L112.772 49.7893Z" fill="black"/>
<path d="M157.005 59.7265H154.236V49.8134C154.236 48.1488 153.939 47.006 153.346 46.36C152.753 45.7389 151.912 45.4159 150.874 45.4159C150.058 45.4159 149.291 45.6147 148.549 46.0122C147.832 46.4097 147.313 46.9811 146.992 47.7016C146.695 48.4221 146.522 49.4656 146.522 50.7824V59.7016H143.777V43.4283H146.25V45.7389H146.299C146.893 44.8445 147.585 44.1737 148.45 43.7265C149.291 43.2793 150.28 43.0557 151.417 43.0557C152.283 43.0557 153.124 43.2047 153.964 43.5277C154.805 43.8258 155.448 44.2979 155.917 44.919C156.387 45.5401 156.684 46.1861 156.808 46.8817C156.931 47.5774 156.981 48.5215 156.981 49.714V59.7265H157.005Z" fill="black"/>
<path d="M124.912 43.0557C123.799 43.0557 122.81 43.2793 121.945 43.7265C121.104 44.1737 120.387 44.8445 119.793 45.7389H119.744V43.4283H117.271V59.7265H120.016V50.8072C120.016 49.4656 120.164 48.447 120.486 47.7265C120.782 47.006 121.302 46.4345 122.043 46.037C122.76 45.6395 123.552 45.4408 124.368 45.4408C124.936 45.4408 125.456 45.5401 125.876 45.714V43.1302C125.554 43.0805 125.233 43.0557 124.912 43.0557Z" fill="black"/>
<path d="M164.868 57.366C164.176 57.366 163.755 57.1921 163.582 56.8443C163.409 56.4965 163.335 55.925 163.335 55.1052V45.5648H166.08V43.4282H163.335V37.7139L160.591 39.3785V43.4282H158.588V45.5648H160.591V54.9561C160.591 56.1238 160.64 57.0431 160.764 57.689C160.887 58.335 161.233 58.8816 161.777 59.3039C162.321 59.7263 163.212 59.9499 164.398 59.9499C164.571 59.9499 164.769 59.9499 164.967 59.925V57.366C164.942 57.366 164.918 57.366 164.868 57.366Z" fill="black"/>
<path d="M75.4866 59.7268H72.0993L67.8712 53.2672L63.5938 59.7268H60.2559L66.2146 51.23L60.7504 43.4287H64.1624C66.3877 46.8076 67.5993 48.6709 67.7971 49.0685L71.7778 43.4287H75.0663L69.4537 51.0809L75.4866 59.7268Z" fill="#FC4C02"/>
<path d="M94.5 54.9565C94.5 56.1242 94.5495 57.0435 94.6731 57.6895C94.7967 58.3354 95.1429 58.882 95.6868 59.3044C96.2308 59.7267 97.1209 59.9503 98.3077 59.9503C98.4808 59.9503 98.6786 59.9503 98.8764 59.9255V57.3665C98.8517 57.3665 98.8022 57.3665 98.7775 57.3665C98.0852 57.3665 97.6648 57.1926 97.4918 56.8447C97.3187 56.4969 97.2445 55.9255 97.2445 55.1056V37.6895H94.5V54.9565Z" fill="black"/>
<path d="M0.0498047 30.1865H9.54431L24.0086 51.2548L9.51958 74.5095H0.0498047L14.341 51.0064L0.0498047 30.1865Z" fill="#FC4C02"/>
<path d="M28.8045 58.1367L24.626 65.938L34.2936 80.0498H43.7633L28.8045 58.1367Z" fill="#FC4C02"/>
<path d="M20.5716 20.4968C19.1623 22.534 16.2447 25.1924 18.3958 28.5465C20.5221 31.9005 21.5853 33.5403 22.8463 35.3291C24.1073 37.1427 28.8298 44.0496 28.8298 44.0496C28.8298 44.0496 40.5496 24.3974 41.0936 23.4781C41.6375 22.5837 41.8106 20.7701 39.6595 18.4098C37.5084 16.0496 31.5496 10.4347 29.7447 7.55268C27.9397 4.67069 27.9397 -0.0498047 27.9397 -0.0498047C27.9397 -0.0498047 26.2337 3.42846 26.1348 5.5651C26.0112 8.29802 28.2859 11.7266 29.9177 14.6086C31.5496 17.5154 32.0688 20.2235 32.0688 21.8384C32.0688 23.4533 30.6348 25.267 30.6348 25.267C30.6348 25.267 30.437 21.5403 28.8298 19.9254C27.198 18.2856 25.8875 16.944 24.5524 13.8135C23.3903 16.7204 24.2062 19.6272 24.9232 21.9875C25.6403 24.3477 24.6513 26.4347 23.9589 28.3726C23.1925 27.6024 24.5524 26.062 22.5002 24.2235C20.9919 22.9316 20.4974 21.6148 20.5716 20.4968Z" fill="#FC4C02"/>
</g>
<defs>
<clipPath id="clip0_44_17">
<rect width="166.154" height="80" fill="white"/>
</clipPath>
</defs>
</svg>
