<svg width="30" height="20" viewBox="0 0 30 20" fill="none" xmlns="http://www.w3.org/2000/svg">
<path d="M29.5 18.3333C29.5 18.9777 28.9777 19.5 28.3333 19.5H1.66667C1.02234 19.5 0.5 18.9777 0.5 18.3333C0.5 17.689 1.02233 17.1667 1.66667 17.1667H28.3333C28.9777 17.1667 29.5 17.689 29.5 18.3333ZM29.5 10C29.5 10.6443 28.9777 11.1667 28.3333 11.1667H1.66667C1.02233 11.1667 0.5 10.6443 0.5 10C0.5 9.35567 1.02233 8.83333 1.66667 8.83333H28.3333C28.9777 8.83333 29.5 9.35567 29.5 10ZM29.5 1.66667C29.5 2.311 28.9777 2.83333 28.3333 2.83333H1.66667C1.02233 2.83333 0.5 2.311 0.5 1.66667C0.5 1.02233 1.02233 0.5 1.66667 0.5H28.3333C28.9777 0.5 29.5 1.02233 29.5 1.66667Z" fill="black" stroke="white"/>
</svg>
